<svg xmlns="http://www.w3.org/2000/svg" viewBox="0 0 27.88 27.88">
    <defs>
        <style>.cls-1{fill:#ffd03f;}</style>
    </defs>
    <title>Ресурс 3</title>
    <g id="Слой_2" data-name="Слой 2">
        <g id="Layer_1" data-name="Layer 1">
            <path class="cls-1"
                  d="M22.13,27.88h-.24c-3.5-.2-9.71-2.91-14.34-7.54S.22,9.48,0,6V5.75l.09-.22c.05-.12,1.32-3,6.12-4.57L6.92.72l5,7.12-.62.6a10.08,10.08,0,0,0-2.24,3.28A13,13,0,0,0,12,15.9a13,13,0,0,0,4.19,2.9,10.09,10.09,0,0,0,3.28-2.24l.59-.62,7.12,5-.24.71c-1.61,4.8-4.45,6.07-4.58,6.12ZM2,6.14C2.34,9.36,5,14.9,9,18.91s9.55,6.63,12.77,6.94a8.12,8.12,0,0,0,3-4.12l-4.52-3.18a10.39,10.39,0,0,1-3.87,2.28l-.27.07-.27-.08a13.94,13.94,0,0,1-5.29-3.49A13.94,13.94,0,0,1,7.07,12L7,11.76l.07-.27A10.37,10.37,0,0,1,9.33,7.62L6.15,3.11A8.15,8.15,0,0,0,2,6.14Z"/>
            <path class="cls-1"
                  d="M26.54,16.26a1,1,0,0,1-1-1.24A10.5,10.5,0,0,0,12.85,2.31,1,1,0,0,1,12.38.37,12.5,12.5,0,0,1,27.51,15.5,1,1,0,0,1,26.54,16.26Z"/>
            <path class="cls-1"
                  d="M21.68,14.83a1,1,0,0,1-1-1.24,5.3,5.3,0,0,0-6.42-6.42,1,1,0,1,1-.47-1.94,7.3,7.3,0,0,1,8.83,8.83A1,1,0,0,1,21.68,14.83Z"/>
        </g>
    </g>
</svg>